<?xml version="1.0" encoding="utf-8"?>
<!-- Generator: Adobe Illustrator 23.0.1, SVG Export Plug-In . SVG Version: 6.00 Build 0)  -->
<svg version="1.1" id="Capa_1" xmlns="http://www.w3.org/2000/svg" xmlns:xlink="http://www.w3.org/1999/xlink" x="0px" y="0px"
	 viewBox="0 0 512 512" style="enable-background:new 0 0 512 512;" xml:space="preserve">
<style type="text/css">
	.st0{fill:#7A0000;}
</style>
<g>
	<g>
		<path class="st0" d="M256,0C114.83,0,0,114.83,0,256s114.83,256,256,256s256-114.85,256-256S397.17,0,256,0z M256,472.34
			C136.73,472.34,39.66,375.3,39.66,256S136.73,39.66,256,39.66S472.34,136.71,472.34,256S375.3,472.34,256,472.34z"/>
	</g>
</g>
<g>
	<g>
		<path class="st0" d="M355.15,234.39h-79.32v-79.32c0-10.95-8.86-19.83-19.83-19.83s-19.83,8.88-19.83,19.83v79.32h-79.32
			c-10.97,0-19.83,8.88-19.83,19.83s8.86,19.83,19.83,19.83h79.32v79.32c0,10.95,8.86,19.83,19.83,19.83
			c10.97,0,19.83-8.88,19.83-19.83v-79.32h79.32c10.97,0,19.83-8.88,19.83-19.83S366.11,234.39,355.15,234.39z"/>
	</g>
</g>
</svg>
