<?xml version="1.0" encoding="utf-8"?>
<!-- Generator: Adobe Illustrator 23.0.1, SVG Export Plug-In . SVG Version: 6.00 Build 0)  -->
<svg version="1.1" id="Lager_1" xmlns="http://www.w3.org/2000/svg" xmlns:xlink="http://www.w3.org/1999/xlink" x="0px" y="0px"
	 viewBox="0 0 1920 1080" style="enable-background:new 0 0 1920 1080;" xml:space="preserve">
<style type="text/css">
	.st0{fill:#FFFFFF;}
</style>
<g>
	<path class="st0" d="M1117.17,485.58c2.67-6.47,4-13.63,4-21.5c0-15.73-5.2-27.73-15.6-36c-10.4-8.27-26.13-12.4-47.2-12.4h-38
		v101.4h36.8c10.67,0,20-1.3,28-3.9s14.67-6.23,20-10.9C1110.51,497.61,1114.51,492.04,1117.17,485.58z"/>
	<path class="st0" d="M931.47,134.5c-212.91,0-385.5,172.59-385.5,385.5s172.59,385.5,385.5,385.5s385.5-172.59,385.5-385.5
		S1144.38,134.5,931.47,134.5z M900.58,667.08c-2.93,0-5.43-0.2-7.5-0.6c-2.07-0.4-3.87-1-5.4-1.8c-1.53-0.8-2.87-1.8-4-3
		c-1.13-1.2-2.17-2.53-3.1-4l-90-110c-1.33-1.73-2.67-3.2-4-4.4c-1.33-1.2-2.9-2.2-4.7-3c-1.8-0.8-3.83-1.37-6.1-1.7
		c-2.27-0.33-4.93-0.5-8-0.5h-17.2v129h-46.8v-288h46.8v123.2h13.4c5.07,0,9.2-0.7,12.4-2.1c3.2-1.4,6.07-3.63,8.6-6.7l87.2-104
		c3.07-3.87,6.23-6.57,9.5-8.1c3.27-1.53,7.37-2.3,12.3-2.3h40l-103,121.6c-2.8,3.47-5.5,6.37-8.1,8.7c-2.6,2.33-5.43,4.23-8.5,5.7
		c4,1.47,7.6,3.5,10.8,6.1c3.2,2.6,6.33,6.03,9.4,10.3l106.8,135.6H900.58z M1150.97,667.08c-8.27,0-14.27-3.2-18-9.6l-67.2-97
		c-2.27-3.33-4.73-5.73-7.4-7.2c-2.67-1.47-6.67-2.2-12-2.2h-26v116h-46.8v-288h84.8c18.93,0,35.23,1.93,48.9,5.8
		c13.67,3.87,24.9,9.37,33.7,16.5c8.8,7.13,15.3,15.7,19.5,25.7s6.3,21.13,6.3,33.4c0,10-1.5,19.33-4.5,28
		c-3,8.67-7.33,16.53-13,23.6c-5.67,7.07-12.63,13.2-20.9,18.4c-8.27,5.2-17.67,9.27-28.2,12.2c5.73,3.47,10.67,8.33,14.8,14.6
		l77.8,109.8H1150.97z"/>
</g>
</svg>
