<?xml version="1.0" encoding="utf-8"?>
<!-- Generator: Adobe Illustrator 23.0.1, SVG Export Plug-In . SVG Version: 6.00 Build 0)  -->
<svg version="1.1" id="Lager_1" xmlns="http://www.w3.org/2000/svg" xmlns:xlink="http://www.w3.org/1999/xlink" x="0px" y="0px"
	 viewBox="0 0 841.89 595.28" style="enable-background:new 0 0 841.89 595.28;" xml:space="preserve">
<style type="text/css">
	.st0{fill:#FFFFFF;}
</style>
<g>
	<path class="st0" d="M335.12,366.97c-16.4,0-29.7-5.4-39.9-16.2c-10.2-10.8-17.85-23.35-22.95-37.65
		c-5.1-14.3-10.05-31.65-14.85-52.05c-3.2-12.8-5.75-22.05-7.65-27.75c-1.9-5.7-4.15-9.25-6.75-10.65
		c-5.6,26.4-12.05,48.3-19.35,65.7c-7.3,17.4-18.9,31.95-34.8,43.65s-37.55,17.55-64.95,17.55c-17.2,0-32.35-2.4-45.45-7.2
		c-13.1-4.8-23.75-15.1-31.95-30.9c-5-9.4-7.5-20.1-7.5-32.1c0-13,3-25.5,9-37.5s14.75-21.75,26.25-29.25
		c11.5-7.5,25.15-11.25,40.95-11.25c14.6,0,26.9,2.55,36.9,7.65c10,5.1,17.45,11.65,22.35,19.65c4.9,8,7.35,16.3,7.35,24.9
		c0,9.4-2.8,17.4-8.4,24c-5.6,6.6-13.3,9.9-23.1,9.9c-4.2,0-9-0.8-14.4-2.4c5.8-2.4,10.15-6.35,13.05-11.85
		c2.9-5.5,4.35-11.65,4.35-18.45c0-9.4-2.7-17.7-8.1-24.9c-5.4-7.2-12.6-10.8-21.6-10.8c-7.4,0-14.15,2.45-20.25,7.35
		c-6.1,4.9-10.9,11.1-14.4,18.6c-3.5,7.5-5.35,15.05-5.55,22.65c-0.4,15.4,1.55,28,5.85,37.8c4.3,9.8,10.15,16.8,17.55,21
		c7.4,4.2,15.5,6,24.3,5.4c14.6-1,26.3-6,35.1-15c8.8-9,15.45-19.9,19.95-32.7c4.5-12.8,9.25-30,14.25-51.6
		c4.6-19.8,8.9-36,12.9-48.6c4-12.6,9.75-24.35,17.25-35.25c7.5-10.9,17.15-19.15,28.95-24.75c-6.2-0.6-14.8-2.3-25.8-5.1
		c-11.2-3-20.45-5.2-27.75-6.6c-7.3-1.4-14.35-2.1-21.15-2.1c-8,0-15.2,1.3-21.6,3.9c-7.4,3.2-13,7.6-16.8,13.2
		c-3.8,5.6-5.7,11.7-5.7,18.3c0,6,1.5,11.8,4.5,17.4c3,5.6,7.15,10.1,12.45,13.5c5.3,3.4,11.35,5.1,18.15,5.1c5.6,0,11-1.1,16.2-3.3
		c-4.6,6.4-9.8,11.15-15.6,14.25c-5.8,3.1-11.8,4.65-18,4.65c-7.4,0-14.4-2.05-21-6.15c-6.6-4.1-11.9-9.75-15.9-16.95
		c-4-7.2-6-15-6-23.4s1.95-16.25,5.85-23.55c3.9-7.3,9.65-13.45,17.25-18.45c10.6-7,22.8-10.5,36.6-10.5c8.6,0,17.3,1.1,26.1,3.3
		c8.8,2.2,19.2,5.4,31.2,9.6l9.6,3.3c9.8,3.2,19.3,5,28.5,5.4c9.4-2.6,18.9-3.8,28.5-3.6h-0.3c-4.8,3-9.4,5-13.8,6
		c-7.8,5-14.2,12.25-19.2,21.75c-5,9.5-8.85,19.45-11.55,29.85c-2.7,10.4-6.15,25.4-10.35,45c9.4-3.2,17.5-8.4,24.3-15.6
		c6.8-7.2,14.6-17,23.4-29.4c1.2-1.8,2.3-3.4,3.3-4.8c1-1.4,1.8-2.6,2.4-3.6c10.8-15,22.05-27.45,33.75-37.35
		c11.7-9.9,23.95-14.85,36.75-14.85c3,0,6,0.3,9,0.9c-10.8,2.8-20.5,8.5-29.1,17.1c-8.6,8.6-18.8,20.8-30.6,36.6
		c-8.8,11.8-16.35,21.25-22.65,28.35c-6.3,7.1-13.4,13.05-21.3,17.85c-7.9,4.8-16.45,7.1-25.65,6.9c7,2,13.55,6.2,19.65,12.6
		c6.1,6.4,11.55,13.75,16.35,22.05c4.8,8.3,10.7,19.35,17.7,33.15c7.6,15.2,14.15,27.45,19.65,36.75c5.5,9.3,11.9,17.35,19.2,24.15
		c7.3,6.8,15.35,10.8,24.15,12C353.42,365.17,343.72,366.97,335.12,366.97z"/>
	<path class="st0" d="M321.62,312.07c2.8,0,5.3-1.45,7.5-4.35c2.2-2.9,4.1-8.85,5.7-17.85l17.7-99.6c0.8-4.2,1.2-8,1.2-11.4
		c0-4-0.6-6.6-1.8-7.8c-1.2-1.2-2.9-1.8-5.1-1.8v-3.6h56.4l-1.2,3.6c-3,0-5.55,1.3-7.65,3.9c-2.1,2.6-3.95,8.4-5.55,17.4l-17.4,99
		c-0.8,4.2-1.2,8-1.2,11.4h15c9.8,0,17.85-2.85,24.15-8.55s10.65-12.65,13.05-20.85h6.3l-7.5,44.1h-100.8L321.62,312.07z"/>
	<path class="st0" d="M432.32,312.07c2.8,0,5.65-1.45,8.55-4.35c2.9-2.9,6.15-8.85,9.75-17.85l39.9-98.4c3.2-8.2,4.8-13.9,4.8-17.1
		c0-2-0.45-3.35-1.35-4.05c-0.9-0.7-2.15-1.05-3.75-1.05l0.6-3.6h57.9l-0.6,3.6c-3,0-5.3,1.25-6.9,3.75c-1.6,2.5-2.3,8.25-2.1,17.25
		l1.8,99.6c0.2,9,1.15,14.95,2.85,17.85c1.7,2.9,3.95,4.35,6.75,4.35l0.9,3.6h-56.7l0.9-3.6c2.8,0,5-1.45,6.6-4.35
		c1.6-2.9,2.3-8.95,2.1-18.15v-6h-36.3l-2.4,6c-3.2,7.8-4.8,13.6-4.8,17.4c0,3.4,1.6,5.1,4.8,5.1l-0.6,3.6h-34.8L432.32,312.07z
		 M504.02,268.87l-1.2-70.5l-28.8,70.5H504.02z"/>
	<path class="st0" d="M561.91,312.07c2.8,0,5.3-1.45,7.5-4.35c2.2-2.9,4.1-8.85,5.7-17.85l17.7-99.6c0.8-4.2,1.2-8,1.2-11.4
		c0-4-0.6-6.6-1.8-7.8c-1.2-1.2-2.9-1.8-5.1-1.8l-0.3-3.6h66.6c13,0,23.2,2.9,30.6,8.7c7.4,5.8,11.1,14.8,11.1,27
		c0,3.4-0.3,7.1-0.9,11.1c-2.6,15.2-10.3,26.1-23.1,32.7c-12.8,6.6-28.5,9.9-47.1,9.9h-6.3l-6.3,34.5c-0.8,4.2-1.2,8.1-1.2,11.7
		c0,4.4,0.6,7.3,1.8,8.7c1.2,1.4,2.8,2.1,4.8,2.1l0.3,3.6h-56.7L561.91,312.07z M626.11,240.37c8.2,0,15.45-2.8,21.75-8.4
		c6.3-5.6,10.25-13.1,11.85-22.5c0.4-1.8,0.6-4.2,0.6-7.2c0-6.8-1.85-12.05-5.55-15.75c-3.7-3.7-8.85-5.75-15.45-6.15h-8.4l-10.8,60
		H626.11z"/>
	<path class="st0" d="M686.41,312.07c2.8,0,5.3-1.45,7.5-4.35c2.2-2.9,4.1-8.85,5.7-17.85l17.7-99.6c0.8-4.2,1.2-8,1.2-11.4
		c0-4-0.6-6.6-1.8-7.8c-1.2-1.2-2.9-1.8-5.1-1.8l-0.3-3.6h66.6c13,0,23.2,2.9,30.6,8.7c7.4,5.8,11.1,14.8,11.1,27
		c0,3.4-0.3,7.1-0.9,11.1c-2.6,15.2-10.3,26.1-23.1,32.7c-12.8,6.6-28.5,9.9-47.1,9.9h-6.3l-6.3,34.5c-0.8,4.2-1.2,8.1-1.2,11.7
		c0,4.4,0.6,7.3,1.8,8.7c1.2,1.4,2.8,2.1,4.8,2.1l0.3,3.6h-56.7L686.41,312.07z M750.61,240.37c8.2,0,15.45-2.8,21.75-8.4
		c6.3-5.6,10.25-13.1,11.85-22.5c0.4-1.8,0.6-4.2,0.6-7.2c0-6.8-1.85-12.05-5.55-15.75c-3.7-3.7-8.85-5.75-15.45-6.15h-8.4l-10.8,60
		H750.61z"/>
</g>
</svg>
