<?xml version="1.0" encoding="utf-8"?>
<!-- Generator: Adobe Illustrator 23.0.1, SVG Export Plug-In . SVG Version: 6.00 Build 0)  -->
<svg version="1.1" id="Capa_1" xmlns="http://www.w3.org/2000/svg" xmlns:xlink="http://www.w3.org/1999/xlink" x="0px" y="0px"
	 viewBox="0 0 477.87 477.87" style="enable-background:new 0 0 477.87 477.87;" xml:space="preserve">
<style type="text/css">
	.st0{fill:#FFFFFF;}
</style>
<g>
	<g>
		<path class="st0" d="M426.67,0H51.2C22.92,0,0,22.92,0,51.2v375.47c0,28.28,22.92,51.2,51.2,51.2h375.47
			c28.28,0,51.2-22.92,51.2-51.2V51.2C477.87,22.92,454.94,0,426.67,0z M443.73,426.67c0,9.43-7.64,17.07-17.07,17.07H51.2
			c-9.43,0-17.07-7.64-17.07-17.07V51.2c0-9.43,7.64-17.07,17.07-17.07h375.47c9.43,0,17.07,7.64,17.07,17.07L443.73,426.67
			L443.73,426.67z"/>
	</g>
</g>
<g>
	<g>
		<path class="st0" d="M153.6,102.4h-51.2c-9.43,0-17.07,7.64-17.07,17.07s7.64,17.07,17.07,17.07h51.2
			c9.43,0,17.07-7.64,17.07-17.07S163.03,102.4,153.6,102.4z"/>
	</g>
</g>
<g>
	<g>
		<path class="st0" d="M375.47,102.4h-153.6c-9.43,0-17.07,7.64-17.07,17.07s7.64,17.07,17.07,17.07h153.6
			c9.43,0,17.07-7.64,17.07-17.07S384.89,102.4,375.47,102.4z"/>
	</g>
</g>
<g>
	<g>
		<path class="st0" d="M153.6,221.87h-51.2c-9.43,0-17.07,7.64-17.07,17.07S92.97,256,102.4,256h51.2c9.43,0,17.07-7.64,17.07-17.07
			S163.03,221.87,153.6,221.87z"/>
	</g>
</g>
<g>
	<g>
		<path class="st0" d="M375.47,221.87h-153.6c-9.43,0-17.07,7.64-17.07,17.07S212.44,256,221.87,256h153.6
			c9.43,0,17.07-7.64,17.07-17.07S384.89,221.87,375.47,221.87z"/>
	</g>
</g>
<g>
	<g>
		<path class="st0" d="M153.6,341.33h-51.2c-9.43,0-17.07,7.64-17.07,17.07s7.64,17.07,17.07,17.07h51.2
			c9.43,0,17.07-7.64,17.07-17.07S163.03,341.33,153.6,341.33z"/>
	</g>
</g>
<g>
	<g>
		<path class="st0" d="M375.47,341.33h-153.6c-9.43,0-17.07,7.64-17.07,17.07s7.64,17.07,17.07,17.07h153.6
			c9.43,0,17.07-7.64,17.07-17.07S384.89,341.33,375.47,341.33z"/>
	</g>
</g>
</svg>
